<?xml version="1.0" encoding="UTF-8" standalone="no"?>
<!DOCTYPE svg PUBLIC "-//W3C//DTD SVG 1.1//EN"
 "http://www.w3.org/Graphics/SVG/1.1/DTD/svg11.dtd">
<!-- Generated by graphviz version 2.47.0 (20210316.0004)
 -->
<!-- Title: dbml Pages: 1 -->
<svg width="1255pt" height="2422pt"
 viewBox="0.00 0.00 1254.57 2422.07" xmlns="http://www.w3.org/2000/svg" xmlns:xlink="http://www.w3.org/1999/xlink">
<g id="graph0" class="graph" transform="scale(1 1) rotate(0) translate(4 2418.07)">
<title>dbml</title>
<!-- Allergy -->
<g id="Allergy" class="node">
<title>Allergy</title>
<ellipse fill="none" stroke="black" stroke-width="0" cx="987.06" cy="-2271.53" rx="210.02" ry="130.22"/>
<polygon fill="#1d71b8" stroke="transparent" points="841.06,-2301.53 841.06,-2361.53 1134.06,-2361.53 1134.06,-2301.53 841.06,-2301.53"/>
<polygon fill="none" stroke="#29235c" points="841.06,-2301.53 841.06,-2361.53 1134.06,-2361.53 1134.06,-2301.53 841.06,-2301.53"/>
<text text-anchor="start" x="876.42" y="-2322.73" font-family="Helvetica,sans-Serif" font-weight="bold" font-size="32.00" fill="#ffffff"> &#160;&#160;&#160;&#160;&#160;&#160;Allergy &#160;&#160;&#160;&#160;&#160;&#160;</text>
<polygon fill="#e7e2dd" stroke="transparent" points="841.06,-2241.53 841.06,-2301.53 1134.06,-2301.53 1134.06,-2241.53 841.06,-2241.53"/>
<polygon fill="none" stroke="#29235c" points="841.06,-2241.53 841.06,-2301.53 1134.06,-2301.53 1134.06,-2241.53 841.06,-2241.53"/>
<text text-anchor="start" x="852.06" y="-2262.73" font-family="Helvetica,sans-Serif" font-weight="bold" font-size="32.00" fill="#29235c">id</text>
<text text-anchor="start" x="876.95" y="-2262.73" font-family="Helvetica,sans-Serif" font-size="32.00" fill="#29235c"> &#160;&#160;&#160;</text>
<text text-anchor="start" x="980.84" y="-2262.73" font-family="Helvetica,sans-Serif" font-style="italic" font-size="32.00" fill="#29235c">INTEGER</text>
<polygon fill="#e7e2dd" stroke="transparent" points="841.06,-2181.53 841.06,-2241.53 1134.06,-2241.53 1134.06,-2181.53 841.06,-2181.53"/>
<polygon fill="none" stroke="#29235c" points="841.06,-2181.53 841.06,-2241.53 1134.06,-2241.53 1134.06,-2181.53 841.06,-2181.53"/>
<text text-anchor="start" x="851.76" y="-2201.73" font-family="Helvetica,sans-Serif" font-size="32.00" fill="#29235c">name &#160;&#160;&#160;</text>
<text text-anchor="start" x="966.85" y="-2202.73" font-family="Helvetica,sans-Serif" font-style="italic" font-size="32.00" fill="#29235c">VARCHAR</text>
<polygon fill="none" stroke="#29235c" stroke-width="2" points="839.56,-2180.53 839.56,-2362.53 1134.56,-2362.53 1134.56,-2180.53 839.56,-2180.53"/>
</g>
<!-- Branding -->
<g id="Branding" class="node">
<title>Branding</title>
<ellipse fill="none" stroke="black" stroke-width="0" cx="987.06" cy="-928.53" rx="210.02" ry="130.22"/>
<polygon fill="#1d71b8" stroke="transparent" points="841.06,-958.53 841.06,-1018.53 1134.06,-1018.53 1134.06,-958.53 841.06,-958.53"/>
<polygon fill="none" stroke="#29235c" points="841.06,-958.53 841.06,-1018.53 1134.06,-1018.53 1134.06,-958.53 841.06,-958.53"/>
<text text-anchor="start" x="861.29" y="-979.73" font-family="Helvetica,sans-Serif" font-weight="bold" font-size="32.00" fill="#ffffff"> &#160;&#160;&#160;&#160;&#160;&#160;Branding &#160;&#160;&#160;&#160;&#160;&#160;</text>
<polygon fill="#e7e2dd" stroke="transparent" points="841.06,-898.53 841.06,-958.53 1134.06,-958.53 1134.06,-898.53 841.06,-898.53"/>
<polygon fill="none" stroke="#29235c" points="841.06,-898.53 841.06,-958.53 1134.06,-958.53 1134.06,-898.53 841.06,-898.53"/>
<text text-anchor="start" x="852.06" y="-919.73" font-family="Helvetica,sans-Serif" font-weight="bold" font-size="32.00" fill="#29235c">id</text>
<text text-anchor="start" x="876.95" y="-919.73" font-family="Helvetica,sans-Serif" font-size="32.00" fill="#29235c"> &#160;&#160;&#160;</text>
<text text-anchor="start" x="980.84" y="-919.73" font-family="Helvetica,sans-Serif" font-style="italic" font-size="32.00" fill="#29235c">INTEGER</text>
<polygon fill="#e7e2dd" stroke="transparent" points="841.06,-838.53 841.06,-898.53 1134.06,-898.53 1134.06,-838.53 841.06,-838.53"/>
<polygon fill="none" stroke="#29235c" points="841.06,-838.53 841.06,-898.53 1134.06,-898.53 1134.06,-838.53 841.06,-838.53"/>
<text text-anchor="start" x="851.76" y="-858.73" font-family="Helvetica,sans-Serif" font-size="32.00" fill="#29235c">name &#160;&#160;&#160;</text>
<text text-anchor="start" x="966.85" y="-859.73" font-family="Helvetica,sans-Serif" font-style="italic" font-size="32.00" fill="#29235c">VARCHAR</text>
<polygon fill="none" stroke="#29235c" stroke-width="2" points="839.56,-837.53 839.56,-1019.53 1134.56,-1019.53 1134.56,-837.53 839.56,-837.53"/>
</g>
<!-- OutletStore -->
<g id="OutletStore" class="node">
<title>OutletStore</title>
<ellipse fill="none" stroke="black" stroke-width="0" cx="987.06" cy="-1866.53" rx="231.45" ry="172.57"/>
<polygon fill="#1d71b8" stroke="transparent" points="826.06,-1926.53 826.06,-1986.53 1149.06,-1986.53 1149.06,-1926.53 826.06,-1926.53"/>
<polygon fill="none" stroke="#29235c" points="826.06,-1926.53 826.06,-1986.53 1149.06,-1986.53 1149.06,-1926.53 826.06,-1926.53"/>
<text text-anchor="start" x="844.4" y="-1947.73" font-family="Helvetica,sans-Serif" font-weight="bold" font-size="32.00" fill="#ffffff"> &#160;&#160;&#160;&#160;&#160;&#160;OutletStore &#160;&#160;&#160;&#160;&#160;&#160;</text>
<polygon fill="#e7e2dd" stroke="transparent" points="826.06,-1866.53 826.06,-1926.53 1149.06,-1926.53 1149.06,-1866.53 826.06,-1866.53"/>
<polygon fill="none" stroke="#29235c" points="826.06,-1866.53 826.06,-1926.53 1149.06,-1926.53 1149.06,-1866.53 826.06,-1866.53"/>
<text text-anchor="start" x="837.06" y="-1887.73" font-family="Helvetica,sans-Serif" font-weight="bold" font-size="32.00" fill="#29235c">id</text>
<text text-anchor="start" x="861.95" y="-1887.73" font-family="Helvetica,sans-Serif" font-size="32.00" fill="#29235c"> &#160;&#160;&#160;</text>
<text text-anchor="start" x="995.84" y="-1887.73" font-family="Helvetica,sans-Serif" font-style="italic" font-size="32.00" fill="#29235c">INTEGER</text>
<polygon fill="#e7e2dd" stroke="transparent" points="826.06,-1806.53 826.06,-1866.53 1149.06,-1866.53 1149.06,-1806.53 826.06,-1806.53"/>
<polygon fill="none" stroke="#29235c" points="826.06,-1806.53 826.06,-1866.53 1149.06,-1866.53 1149.06,-1806.53 826.06,-1806.53"/>
<text text-anchor="start" x="837.06" y="-1826.73" font-family="Helvetica,sans-Serif" font-size="32.00" fill="#29235c">name &#160;&#160;&#160;</text>
<text text-anchor="start" x="981.63" y="-1827.73" font-family="Helvetica,sans-Serif" font-style="italic" font-size="32.00" fill="#29235c">VARCHAR</text>
<polygon fill="#e7e2dd" stroke="transparent" points="826.06,-1746.53 826.06,-1806.53 1149.06,-1806.53 1149.06,-1746.53 826.06,-1746.53"/>
<polygon fill="none" stroke="#29235c" points="826.06,-1746.53 826.06,-1806.53 1149.06,-1806.53 1149.06,-1746.53 826.06,-1746.53"/>
<text text-anchor="start" x="836.65" y="-1766.73" font-family="Helvetica,sans-Serif" font-size="32.00" fill="#29235c">location &#160;&#160;&#160;</text>
<text text-anchor="start" x="981.85" y="-1767.73" font-family="Helvetica,sans-Serif" font-style="italic" font-size="32.00" fill="#29235c">VARCHAR</text>
<polygon fill="none" stroke="#29235c" stroke-width="2" points="824.56,-1745.53 824.56,-1987.53 1149.56,-1987.53 1149.56,-1745.53 824.56,-1745.53"/>
</g>
<!-- Preference -->
<g id="Preference" class="node">
<title>Preference</title>
<ellipse fill="none" stroke="black" stroke-width="0" cx="345.78" cy="-1346.53" rx="345.55" ry="257.27"/>
<polygon fill="#1d71b8" stroke="transparent" points="103.78,-1466.53 103.78,-1526.53 588.78,-1526.53 588.78,-1466.53 103.78,-1466.53"/>
<polygon fill="none" stroke="#29235c" points="103.78,-1466.53 103.78,-1526.53 588.78,-1526.53 588.78,-1466.53 103.78,-1466.53"/>
<text text-anchor="start" x="205.78" y="-1487.73" font-family="Helvetica,sans-Serif" font-weight="bold" font-size="32.00" fill="#ffffff"> &#160;&#160;&#160;&#160;&#160;&#160;Preference &#160;&#160;&#160;&#160;&#160;&#160;</text>
<polygon fill="#e7e2dd" stroke="transparent" points="103.78,-1406.53 103.78,-1466.53 588.78,-1466.53 588.78,-1406.53 103.78,-1406.53"/>
<polygon fill="none" stroke="#29235c" points="103.78,-1406.53 103.78,-1466.53 588.78,-1466.53 588.78,-1406.53 103.78,-1406.53"/>
<text text-anchor="start" x="114.78" y="-1427.73" font-family="Helvetica,sans-Serif" font-weight="bold" font-size="32.00" fill="#29235c">id</text>
<text text-anchor="start" x="139.66" y="-1427.73" font-family="Helvetica,sans-Serif" font-size="32.00" fill="#29235c"> &#160;&#160;&#160;</text>
<text text-anchor="start" x="435.56" y="-1427.73" font-family="Helvetica,sans-Serif" font-style="italic" font-size="32.00" fill="#29235c">INTEGER</text>
<polygon fill="#e7e2dd" stroke="transparent" points="103.78,-1346.53 103.78,-1406.53 588.78,-1406.53 588.78,-1346.53 103.78,-1346.53"/>
<polygon fill="none" stroke="#29235c" points="103.78,-1346.53 103.78,-1406.53 588.78,-1406.53 588.78,-1346.53 103.78,-1346.53"/>
<text text-anchor="start" x="114.78" y="-1366.73" font-family="Helvetica,sans-Serif" font-size="32.00" fill="#29235c">user_id &#160;&#160;&#160;</text>
<text text-anchor="start" x="435.56" y="-1367.73" font-family="Helvetica,sans-Serif" font-style="italic" font-size="32.00" fill="#29235c">INTEGER</text>
<polygon fill="#e7e2dd" stroke="transparent" points="103.78,-1286.53 103.78,-1346.53 588.78,-1346.53 588.78,-1286.53 103.78,-1286.53"/>
<polygon fill="none" stroke="#29235c" points="103.78,-1286.53 103.78,-1346.53 588.78,-1346.53 588.78,-1286.53 103.78,-1286.53"/>
<text text-anchor="start" x="114.78" y="-1306.73" font-family="Helvetica,sans-Serif" font-size="32.00" fill="#29235c">source_of_plant &#160;&#160;&#160;</text>
<text text-anchor="start" x="421.35" y="-1307.73" font-family="Helvetica,sans-Serif" font-style="italic" font-size="32.00" fill="#29235c">VARCHAR</text>
<polygon fill="#e7e2dd" stroke="transparent" points="103.78,-1226.53 103.78,-1286.53 588.78,-1286.53 588.78,-1226.53 103.78,-1226.53"/>
<polygon fill="none" stroke="#29235c" points="103.78,-1226.53 103.78,-1286.53 588.78,-1286.53 588.78,-1226.53 103.78,-1226.53"/>
<text text-anchor="start" x="114.78" y="-1246.73" font-family="Helvetica,sans-Serif" font-size="32.00" fill="#29235c">percentage_of_thc &#160;&#160;&#160;</text>
<text text-anchor="start" x="474.66" y="-1247.73" font-family="Helvetica,sans-Serif" font-style="italic" font-size="32.00" fill="#29235c">FLOAT</text>
<polygon fill="#e7e2dd" stroke="transparent" points="103.78,-1166.53 103.78,-1226.53 588.78,-1226.53 588.78,-1166.53 103.78,-1166.53"/>
<polygon fill="none" stroke="#29235c" points="103.78,-1166.53 103.78,-1226.53 588.78,-1226.53 588.78,-1166.53 103.78,-1166.53"/>
<text text-anchor="start" x="114.45" y="-1186.73" font-family="Helvetica,sans-Serif" font-size="32.00" fill="#29235c">preferred_branding &#160;&#160;&#160;</text>
<text text-anchor="start" x="421.56" y="-1187.73" font-family="Helvetica,sans-Serif" font-style="italic" font-size="32.00" fill="#29235c">VARCHAR</text>
<polygon fill="none" stroke="#29235c" stroke-width="2" points="102.28,-1165.53 102.28,-1527.53 589.28,-1527.53 589.28,-1165.53 102.28,-1165.53"/>
</g>
<!-- User -->
<g id="User" class="node">
<title>User</title>
<ellipse fill="none" stroke="black" stroke-width="0" cx="987.06" cy="-1298.53" rx="210.02" ry="172.57"/>
<polygon fill="#1d71b8" stroke="transparent" points="841.06,-1358.53 841.06,-1418.53 1134.06,-1418.53 1134.06,-1358.53 841.06,-1358.53"/>
<polygon fill="none" stroke="#29235c" points="841.06,-1358.53 841.06,-1418.53 1134.06,-1418.53 1134.06,-1358.53 841.06,-1358.53"/>
<text text-anchor="start" x="891.54" y="-1379.73" font-family="Helvetica,sans-Serif" font-weight="bold" font-size="32.00" fill="#ffffff"> &#160;&#160;&#160;&#160;&#160;&#160;User &#160;&#160;&#160;&#160;&#160;&#160;</text>
<polygon fill="#e7e2dd" stroke="transparent" points="841.06,-1298.53 841.06,-1358.53 1134.06,-1358.53 1134.06,-1298.53 841.06,-1298.53"/>
<polygon fill="none" stroke="#29235c" points="841.06,-1298.53 841.06,-1358.53 1134.06,-1358.53 1134.06,-1298.53 841.06,-1298.53"/>
<text text-anchor="start" x="852.06" y="-1319.73" font-family="Helvetica,sans-Serif" font-weight="bold" font-size="32.00" fill="#29235c">id</text>
<text text-anchor="start" x="876.95" y="-1319.73" font-family="Helvetica,sans-Serif" font-size="32.00" fill="#29235c"> &#160;&#160;&#160;</text>
<text text-anchor="start" x="980.84" y="-1319.73" font-family="Helvetica,sans-Serif" font-style="italic" font-size="32.00" fill="#29235c">INTEGER</text>
<polygon fill="#e7e2dd" stroke="transparent" points="841.06,-1238.53 841.06,-1298.53 1134.06,-1298.53 1134.06,-1238.53 841.06,-1238.53"/>
<polygon fill="none" stroke="#29235c" points="841.06,-1238.53 841.06,-1298.53 1134.06,-1298.53 1134.06,-1238.53 841.06,-1238.53"/>
<text text-anchor="start" x="851.76" y="-1258.73" font-family="Helvetica,sans-Serif" font-size="32.00" fill="#29235c">name &#160;&#160;&#160;</text>
<text text-anchor="start" x="966.85" y="-1259.73" font-family="Helvetica,sans-Serif" font-style="italic" font-size="32.00" fill="#29235c">VARCHAR</text>
<polygon fill="#e7e2dd" stroke="transparent" points="841.06,-1178.53 841.06,-1238.53 1134.06,-1238.53 1134.06,-1178.53 841.06,-1178.53"/>
<polygon fill="none" stroke="#29235c" points="841.06,-1178.53 841.06,-1238.53 1134.06,-1238.53 1134.06,-1178.53 841.06,-1178.53"/>
<text text-anchor="start" x="852.06" y="-1198.73" font-family="Helvetica,sans-Serif" font-size="32.00" fill="#29235c">email &#160;&#160;&#160;</text>
<text text-anchor="start" x="966.63" y="-1199.73" font-family="Helvetica,sans-Serif" font-style="italic" font-size="32.00" fill="#29235c">VARCHAR</text>
<polygon fill="none" stroke="#29235c" stroke-width="2" points="839.56,-1177.53 839.56,-1419.53 1134.56,-1419.53 1134.56,-1177.53 839.56,-1177.53"/>
</g>
<!-- Preference&#45;&gt;User -->
<!-- Preference&#45;&gt;User -->
<g id="edge2" class="edge">
<title>Preference:e&#45;&gt;User:w</title>
<path fill="none" stroke="#29235c" stroke-width="3" d="M589.78,-1376.53C699.61,-1376.53 725.27,-1331.4 830.01,-1328.66"/>
<polygon fill="#29235c" stroke="#29235c" stroke-width="3" points="830.1,-1332.16 840.06,-1328.53 830.01,-1325.16 830.1,-1332.16"/>
<text text-anchor="middle" x="833.84" y="-1338.13" font-family="Helvetica,sans-Serif" font-size="32.00" fill="#29235c">*</text>
<text text-anchor="middle" x="598.67" y="-1386.13" font-family="Helvetica,sans-Serif" font-size="32.00" fill="#29235c">1</text>
</g>
<!-- Pricing -->
<g id="Pricing" class="node">
<title>Pricing</title>
<ellipse fill="none" stroke="black" stroke-width="0" cx="345.78" cy="-1836.53" rx="292.07" ry="214.92"/>
<polygon fill="#1d71b8" stroke="transparent" points="141.78,-1926.53 141.78,-1986.53 550.78,-1986.53 550.78,-1926.53 141.78,-1926.53"/>
<polygon fill="none" stroke="#29235c" points="141.78,-1926.53 141.78,-1986.53 550.78,-1986.53 550.78,-1926.53 141.78,-1926.53"/>
<text text-anchor="start" x="235.14" y="-1947.73" font-family="Helvetica,sans-Serif" font-weight="bold" font-size="32.00" fill="#ffffff"> &#160;&#160;&#160;&#160;&#160;&#160;Pricing &#160;&#160;&#160;&#160;&#160;&#160;</text>
<polygon fill="#e7e2dd" stroke="transparent" points="141.78,-1866.53 141.78,-1926.53 550.78,-1926.53 550.78,-1866.53 141.78,-1866.53"/>
<polygon fill="none" stroke="#29235c" points="141.78,-1866.53 141.78,-1926.53 550.78,-1926.53 550.78,-1866.53 141.78,-1866.53"/>
<text text-anchor="start" x="152.78" y="-1887.73" font-family="Helvetica,sans-Serif" font-weight="bold" font-size="32.00" fill="#29235c">id</text>
<text text-anchor="start" x="177.66" y="-1887.73" font-family="Helvetica,sans-Serif" font-size="32.00" fill="#29235c"> &#160;&#160;&#160;</text>
<text text-anchor="start" x="397.56" y="-1887.73" font-family="Helvetica,sans-Serif" font-style="italic" font-size="32.00" fill="#29235c">INTEGER</text>
<polygon fill="#e7e2dd" stroke="transparent" points="141.78,-1806.53 141.78,-1866.53 550.78,-1866.53 550.78,-1806.53 141.78,-1806.53"/>
<polygon fill="none" stroke="#29235c" points="141.78,-1806.53 141.78,-1866.53 550.78,-1866.53 550.78,-1806.53 141.78,-1806.53"/>
<text text-anchor="start" x="152.78" y="-1826.73" font-family="Helvetica,sans-Serif" font-size="32.00" fill="#29235c">user_id &#160;&#160;&#160;</text>
<text text-anchor="start" x="397.56" y="-1827.73" font-family="Helvetica,sans-Serif" font-style="italic" font-size="32.00" fill="#29235c">INTEGER</text>
<polygon fill="#e7e2dd" stroke="transparent" points="141.78,-1746.53 141.78,-1806.53 550.78,-1806.53 550.78,-1746.53 141.78,-1746.53"/>
<polygon fill="none" stroke="#29235c" points="141.78,-1746.53 141.78,-1806.53 550.78,-1806.53 550.78,-1746.53 141.78,-1746.53"/>
<text text-anchor="start" x="152.57" y="-1766.73" font-family="Helvetica,sans-Serif" font-size="32.00" fill="#29235c">outlet_store_id &#160;&#160;&#160;</text>
<text text-anchor="start" x="397.67" y="-1767.73" font-family="Helvetica,sans-Serif" font-style="italic" font-size="32.00" fill="#29235c">INTEGER</text>
<polygon fill="#e7e2dd" stroke="transparent" points="141.78,-1686.53 141.78,-1746.53 550.78,-1746.53 550.78,-1686.53 141.78,-1686.53"/>
<polygon fill="none" stroke="#29235c" points="141.78,-1686.53 141.78,-1746.53 550.78,-1746.53 550.78,-1686.53 141.78,-1686.53"/>
<text text-anchor="start" x="152.78" y="-1706.73" font-family="Helvetica,sans-Serif" font-size="32.00" fill="#29235c">price &#160;&#160;&#160;</text>
<text text-anchor="start" x="436.66" y="-1707.73" font-family="Helvetica,sans-Serif" font-style="italic" font-size="32.00" fill="#29235c">FLOAT</text>
<polygon fill="none" stroke="#29235c" stroke-width="2" points="140.28,-1685.53 140.28,-1987.53 551.28,-1987.53 551.28,-1685.53 140.28,-1685.53"/>
</g>
<!-- Pricing&#45;&gt;OutletStore -->
<!-- Pricing&#45;&gt;OutletStore -->
<g id="edge4" class="edge">
<title>Pricing:e&#45;&gt;OutletStore:w</title>
<path fill="none" stroke="#29235c" stroke-width="3" d="M551.78,-1776.53C680.93,-1776.53 691.9,-1890.29 814.82,-1896.29"/>
<polygon fill="#29235c" stroke="#29235c" stroke-width="3" points="814.98,-1899.79 825.06,-1896.53 815.15,-1892.79 814.98,-1899.79"/>
<text text-anchor="middle" x="818.84" y="-1906.13" font-family="Helvetica,sans-Serif" font-size="32.00" fill="#29235c">*</text>
<text text-anchor="middle" x="560.67" y="-1786.13" font-family="Helvetica,sans-Serif" font-size="32.00" fill="#29235c">1</text>
</g>
<!-- Pricing&#45;&gt;User -->
<!-- Pricing&#45;&gt;User -->
<g id="edge6" class="edge">
<title>Pricing:e&#45;&gt;User:w</title>
<path fill="none" stroke="#29235c" stroke-width="3" d="M551.78,-1836.53C807.95,-1836.53 586.46,-1341.84 830.04,-1328.8"/>
<polygon fill="#29235c" stroke="#29235c" stroke-width="3" points="830.15,-1332.3 840.06,-1328.53 829.97,-1325.3 830.15,-1332.3"/>
<text text-anchor="middle" x="846.28" y="-1338.13" font-family="Helvetica,sans-Serif" font-size="32.00" fill="#29235c">*</text>
<text text-anchor="middle" x="560.67" y="-1846.13" font-family="Helvetica,sans-Serif" font-size="32.00" fill="#29235c">1</text>
</g>
<!-- SourceOfPlant -->
<g id="SourceOfPlant" class="node">
<title>SourceOfPlant</title>
<ellipse fill="none" stroke="black" stroke-width="0" cx="987.06" cy="-565.53" rx="253.29" ry="130.22"/>
<polygon fill="#1d71b8" stroke="transparent" points="810.06,-595.53 810.06,-655.53 1164.06,-655.53 1164.06,-595.53 810.06,-595.53"/>
<polygon fill="none" stroke="#29235c" points="810.06,-595.53 810.06,-655.53 1164.06,-655.53 1164.06,-595.53 810.06,-595.53"/>
<text text-anchor="start" x="820.78" y="-616.73" font-family="Helvetica,sans-Serif" font-weight="bold" font-size="32.00" fill="#ffffff"> &#160;&#160;&#160;&#160;&#160;&#160;SourceOfPlant &#160;&#160;&#160;&#160;&#160;&#160;</text>
<polygon fill="#e7e2dd" stroke="transparent" points="810.06,-535.53 810.06,-595.53 1164.06,-595.53 1164.06,-535.53 810.06,-535.53"/>
<polygon fill="none" stroke="#29235c" points="810.06,-535.53 810.06,-595.53 1164.06,-595.53 1164.06,-535.53 810.06,-535.53"/>
<text text-anchor="start" x="821.06" y="-556.73" font-family="Helvetica,sans-Serif" font-weight="bold" font-size="32.00" fill="#29235c">id</text>
<text text-anchor="start" x="845.95" y="-556.73" font-family="Helvetica,sans-Serif" font-size="32.00" fill="#29235c"> &#160;&#160;&#160;</text>
<text text-anchor="start" x="1010.84" y="-556.73" font-family="Helvetica,sans-Serif" font-style="italic" font-size="32.00" fill="#29235c">INTEGER</text>
<polygon fill="#e7e2dd" stroke="transparent" points="810.06,-475.53 810.06,-535.53 1164.06,-535.53 1164.06,-475.53 810.06,-475.53"/>
<polygon fill="none" stroke="#29235c" points="810.06,-475.53 810.06,-535.53 1164.06,-535.53 1164.06,-475.53 810.06,-475.53"/>
<text text-anchor="start" x="821.06" y="-495.73" font-family="Helvetica,sans-Serif" font-size="32.00" fill="#29235c">name &#160;&#160;&#160;</text>
<text text-anchor="start" x="996.63" y="-496.73" font-family="Helvetica,sans-Serif" font-style="italic" font-size="32.00" fill="#29235c">VARCHAR</text>
<polygon fill="none" stroke="#29235c" stroke-width="2" points="809.06,-474.53 809.06,-656.53 1165.06,-656.53 1165.06,-474.53 809.06,-474.53"/>
</g>
<!-- ThcPercentage -->
<g id="ThcPercentage" class="node">
<title>ThcPercentage</title>
<ellipse fill="none" stroke="black" stroke-width="0" cx="987.06" cy="-202.53" rx="259.52" ry="130.22"/>
<polygon fill="#1d71b8" stroke="transparent" points="806.06,-232.53 806.06,-292.53 1169.06,-292.53 1169.06,-232.53 806.06,-232.53"/>
<polygon fill="none" stroke="#29235c" points="806.06,-232.53 806.06,-292.53 1169.06,-292.53 1169.06,-232.53 806.06,-232.53"/>
<text text-anchor="start" x="816.83" y="-253.73" font-family="Helvetica,sans-Serif" font-weight="bold" font-size="32.00" fill="#ffffff"> &#160;&#160;&#160;&#160;&#160;&#160;ThcPercentage &#160;&#160;&#160;&#160;&#160;&#160;</text>
<polygon fill="#e7e2dd" stroke="transparent" points="806.06,-172.53 806.06,-232.53 1169.06,-232.53 1169.06,-172.53 806.06,-172.53"/>
<polygon fill="none" stroke="#29235c" points="806.06,-172.53 806.06,-232.53 1169.06,-232.53 1169.06,-172.53 806.06,-172.53"/>
<text text-anchor="start" x="817.06" y="-193.73" font-family="Helvetica,sans-Serif" font-weight="bold" font-size="32.00" fill="#29235c">id</text>
<text text-anchor="start" x="841.95" y="-193.73" font-family="Helvetica,sans-Serif" font-size="32.00" fill="#29235c"> &#160;&#160;&#160;</text>
<text text-anchor="start" x="1015.84" y="-193.73" font-family="Helvetica,sans-Serif" font-style="italic" font-size="32.00" fill="#29235c">INTEGER</text>
<polygon fill="#e7e2dd" stroke="transparent" points="806.06,-112.53 806.06,-172.53 1169.06,-172.53 1169.06,-112.53 806.06,-112.53"/>
<polygon fill="none" stroke="#29235c" points="806.06,-112.53 806.06,-172.53 1169.06,-172.53 1169.06,-112.53 806.06,-112.53"/>
<text text-anchor="start" x="817.06" y="-132.73" font-family="Helvetica,sans-Serif" font-size="32.00" fill="#29235c">value &#160;&#160;&#160;</text>
<text text-anchor="start" x="1054.94" y="-133.73" font-family="Helvetica,sans-Serif" font-style="italic" font-size="32.00" fill="#29235c">FLOAT</text>
<polygon fill="none" stroke="#29235c" stroke-width="2" points="804.56,-111.53 804.56,-293.53 1169.56,-293.53 1169.56,-111.53 804.56,-111.53"/>
</g>
<!-- UserAllergy -->
<g id="UserAllergy" class="node">
<title>UserAllergy</title>
<ellipse fill="none" stroke="black" stroke-width="0" cx="345.78" cy="-2241.53" rx="240.33" ry="172.57"/>
<polygon fill="#1d71b8" stroke="transparent" points="177.78,-2301.53 177.78,-2361.53 513.78,-2361.53 513.78,-2301.53 177.78,-2301.53"/>
<polygon fill="none" stroke="#29235c" points="177.78,-2301.53 177.78,-2361.53 513.78,-2361.53 513.78,-2301.53 177.78,-2301.53"/>
<text text-anchor="start" x="200.87" y="-2322.73" font-family="Helvetica,sans-Serif" font-weight="bold" font-size="32.00" fill="#ffffff"> &#160;&#160;&#160;&#160;&#160;&#160;UserAllergy &#160;&#160;&#160;&#160;&#160;&#160;</text>
<polygon fill="#e7e2dd" stroke="transparent" points="177.78,-2241.53 177.78,-2301.53 513.78,-2301.53 513.78,-2241.53 177.78,-2241.53"/>
<polygon fill="none" stroke="#29235c" points="177.78,-2241.53 177.78,-2301.53 513.78,-2301.53 513.78,-2241.53 177.78,-2241.53"/>
<text text-anchor="start" x="188.78" y="-2262.73" font-family="Helvetica,sans-Serif" font-weight="bold" font-size="32.00" fill="#29235c">id</text>
<text text-anchor="start" x="213.66" y="-2262.73" font-family="Helvetica,sans-Serif" font-size="32.00" fill="#29235c"> &#160;&#160;&#160;</text>
<text text-anchor="start" x="360.56" y="-2262.73" font-family="Helvetica,sans-Serif" font-style="italic" font-size="32.00" fill="#29235c">INTEGER</text>
<polygon fill="#e7e2dd" stroke="transparent" points="177.78,-2181.53 177.78,-2241.53 513.78,-2241.53 513.78,-2181.53 177.78,-2181.53"/>
<polygon fill="none" stroke="#29235c" points="177.78,-2181.53 177.78,-2241.53 513.78,-2241.53 513.78,-2181.53 177.78,-2181.53"/>
<text text-anchor="start" x="188.78" y="-2201.73" font-family="Helvetica,sans-Serif" font-size="32.00" fill="#29235c">user_id &#160;&#160;&#160;</text>
<text text-anchor="start" x="360.56" y="-2202.73" font-family="Helvetica,sans-Serif" font-style="italic" font-size="32.00" fill="#29235c">INTEGER</text>
<polygon fill="#e7e2dd" stroke="transparent" points="177.78,-2121.53 177.78,-2181.53 513.78,-2181.53 513.78,-2121.53 177.78,-2121.53"/>
<polygon fill="none" stroke="#29235c" points="177.78,-2121.53 177.78,-2181.53 513.78,-2181.53 513.78,-2121.53 177.78,-2121.53"/>
<text text-anchor="start" x="188.54" y="-2141.73" font-family="Helvetica,sans-Serif" font-size="32.00" fill="#29235c">allergy_id &#160;&#160;&#160;</text>
<text text-anchor="start" x="360.67" y="-2142.73" font-family="Helvetica,sans-Serif" font-style="italic" font-size="32.00" fill="#29235c">INTEGER</text>
<polygon fill="none" stroke="#29235c" stroke-width="2" points="176.78,-2120.53 176.78,-2362.53 514.78,-2362.53 514.78,-2120.53 176.78,-2120.53"/>
</g>
<!-- UserAllergy&#45;&gt;Allergy -->
<!-- UserAllergy&#45;&gt;Allergy -->
<g id="edge8" class="edge">
<title>UserAllergy:e&#45;&gt;Allergy:w</title>
<path fill="none" stroke="#29235c" stroke-width="3" d="M514.78,-2151.53C665.41,-2151.53 685.13,-2266.2 829.88,-2271.36"/>
<polygon fill="#29235c" stroke="#29235c" stroke-width="3" points="830,-2274.86 840.06,-2271.53 830.12,-2267.86 830,-2274.86"/>
<text text-anchor="middle" x="833.84" y="-2281.13" font-family="Helvetica,sans-Serif" font-size="32.00" fill="#29235c">*</text>
<text text-anchor="middle" x="523.67" y="-2161.13" font-family="Helvetica,sans-Serif" font-size="32.00" fill="#29235c">1</text>
</g>
<!-- UserAllergy&#45;&gt;User -->
<!-- UserAllergy&#45;&gt;User -->
<g id="edge10" class="edge">
<title>UserAllergy:e&#45;&gt;User:w</title>
<path fill="none" stroke="#29235c" stroke-width="3" d="M514.78,-2211.53C618.1,-2211.53 643.87,-2152.2 691.55,-2060.53 730.29,-1986.07 710.81,-1766.79 727.55,-1684.53 759.93,-1525.43 677.79,-1336.83 829.71,-1328.8"/>
<polygon fill="#29235c" stroke="#29235c" stroke-width="3" points="830.15,-1332.29 840.06,-1328.53 829.97,-1325.29 830.15,-1332.29"/>
<text text-anchor="middle" x="833.84" y="-1299.73" font-family="Helvetica,sans-Serif" font-size="32.00" fill="#29235c">*</text>
<text text-anchor="middle" x="523.67" y="-2221.13" font-family="Helvetica,sans-Serif" font-size="32.00" fill="#29235c">1</text>
</g>
<!-- UserBranding -->
<g id="UserBranding" class="node">
<title>UserBranding</title>
<ellipse fill="none" stroke="black" stroke-width="0" cx="345.78" cy="-898.53" rx="261.76" ry="172.57"/>
<polygon fill="#1d71b8" stroke="transparent" points="162.78,-958.53 162.78,-1018.53 528.78,-1018.53 528.78,-958.53 162.78,-958.53"/>
<polygon fill="none" stroke="#29235c" points="162.78,-958.53 162.78,-1018.53 528.78,-1018.53 528.78,-958.53 162.78,-958.53"/>
<text text-anchor="start" x="185.74" y="-979.73" font-family="Helvetica,sans-Serif" font-weight="bold" font-size="32.00" fill="#ffffff"> &#160;&#160;&#160;&#160;&#160;&#160;UserBranding &#160;&#160;&#160;&#160;&#160;&#160;</text>
<polygon fill="#e7e2dd" stroke="transparent" points="162.78,-898.53 162.78,-958.53 528.78,-958.53 528.78,-898.53 162.78,-898.53"/>
<polygon fill="none" stroke="#29235c" points="162.78,-898.53 162.78,-958.53 528.78,-958.53 528.78,-898.53 162.78,-898.53"/>
<text text-anchor="start" x="173.78" y="-919.73" font-family="Helvetica,sans-Serif" font-weight="bold" font-size="32.00" fill="#29235c">id</text>
<text text-anchor="start" x="198.66" y="-919.73" font-family="Helvetica,sans-Serif" font-size="32.00" fill="#29235c"> &#160;&#160;&#160;</text>
<text text-anchor="start" x="375.56" y="-919.73" font-family="Helvetica,sans-Serif" font-style="italic" font-size="32.00" fill="#29235c">INTEGER</text>
<polygon fill="#e7e2dd" stroke="transparent" points="162.78,-838.53 162.78,-898.53 528.78,-898.53 528.78,-838.53 162.78,-838.53"/>
<polygon fill="none" stroke="#29235c" points="162.78,-838.53 162.78,-898.53 528.78,-898.53 528.78,-838.53 162.78,-838.53"/>
<text text-anchor="start" x="173.78" y="-858.73" font-family="Helvetica,sans-Serif" font-size="32.00" fill="#29235c">user_id &#160;&#160;&#160;</text>
<text text-anchor="start" x="375.56" y="-859.73" font-family="Helvetica,sans-Serif" font-style="italic" font-size="32.00" fill="#29235c">INTEGER</text>
<polygon fill="#e7e2dd" stroke="transparent" points="162.78,-778.53 162.78,-838.53 528.78,-838.53 528.78,-778.53 162.78,-778.53"/>
<polygon fill="none" stroke="#29235c" points="162.78,-778.53 162.78,-838.53 528.78,-838.53 528.78,-778.53 162.78,-778.53"/>
<text text-anchor="start" x="173.41" y="-798.73" font-family="Helvetica,sans-Serif" font-size="32.00" fill="#29235c">branding_id &#160;&#160;&#160;</text>
<text text-anchor="start" x="375.67" y="-799.73" font-family="Helvetica,sans-Serif" font-style="italic" font-size="32.00" fill="#29235c">INTEGER</text>
<polygon fill="none" stroke="#29235c" stroke-width="2" points="161.78,-777.53 161.78,-1019.53 529.78,-1019.53 529.78,-777.53 161.78,-777.53"/>
</g>
<!-- UserBranding&#45;&gt;Branding -->
<!-- UserBranding&#45;&gt;Branding -->
<g id="edge12" class="edge">
<title>UserBranding:e&#45;&gt;Branding:w</title>
<path fill="none" stroke="#29235c" stroke-width="3" d="M529.78,-808.53C674.17,-808.53 691.44,-922.97 829.88,-928.34"/>
<polygon fill="#29235c" stroke="#29235c" stroke-width="3" points="829.99,-931.84 840.06,-928.53 830.13,-924.84 829.99,-931.84"/>
<text text-anchor="middle" x="833.84" y="-938.13" font-family="Helvetica,sans-Serif" font-size="32.00" fill="#29235c">*</text>
<text text-anchor="middle" x="538.67" y="-818.13" font-family="Helvetica,sans-Serif" font-size="32.00" fill="#29235c">1</text>
</g>
<!-- UserBranding&#45;&gt;User -->
<!-- UserBranding&#45;&gt;User -->
<g id="edge14" class="edge">
<title>UserBranding:e&#45;&gt;User:w</title>
<path fill="none" stroke="#29235c" stroke-width="3" d="M529.78,-868.53C648.3,-868.53 625.05,-982.43 691.55,-1080.53 761.66,-1183.97 714.34,-1320.81 829.92,-1328.22"/>
<polygon fill="#29235c" stroke="#29235c" stroke-width="3" points="829.96,-1331.72 840.06,-1328.53 830.17,-1324.73 829.96,-1331.72"/>
<text text-anchor="middle" x="846.28" y="-1299.73" font-family="Helvetica,sans-Serif" font-size="32.00" fill="#29235c">*</text>
<text text-anchor="middle" x="538.67" y="-878.13" font-family="Helvetica,sans-Serif" font-size="32.00" fill="#29235c">1</text>
</g>
<!-- UserSourceOfPlant -->
<g id="UserSourceOfPlant" class="node">
<title>UserSourceOfPlant</title>
<ellipse fill="none" stroke="black" stroke-width="0" cx="345.78" cy="-535.53" rx="334.42" ry="172.57"/>
<polygon fill="#1d71b8" stroke="transparent" points="111.78,-595.53 111.78,-655.53 580.78,-655.53 580.78,-595.53 111.78,-595.53"/>
<polygon fill="none" stroke="#29235c" points="111.78,-595.53 111.78,-655.53 580.78,-655.53 580.78,-595.53 111.78,-595.53"/>
<text text-anchor="start" x="146.23" y="-616.73" font-family="Helvetica,sans-Serif" font-weight="bold" font-size="32.00" fill="#ffffff"> &#160;&#160;&#160;&#160;&#160;&#160;UserSourceOfPlant &#160;&#160;&#160;&#160;&#160;&#160;</text>
<polygon fill="#e7e2dd" stroke="transparent" points="111.78,-535.53 111.78,-595.53 580.78,-595.53 580.78,-535.53 111.78,-535.53"/>
<polygon fill="none" stroke="#29235c" points="111.78,-535.53 111.78,-595.53 580.78,-595.53 580.78,-535.53 111.78,-535.53"/>
<text text-anchor="start" x="122.78" y="-556.73" font-family="Helvetica,sans-Serif" font-weight="bold" font-size="32.00" fill="#29235c">id</text>
<text text-anchor="start" x="147.66" y="-556.73" font-family="Helvetica,sans-Serif" font-size="32.00" fill="#29235c"> &#160;&#160;&#160;</text>
<text text-anchor="start" x="427.56" y="-556.73" font-family="Helvetica,sans-Serif" font-style="italic" font-size="32.00" fill="#29235c">INTEGER</text>
<polygon fill="#e7e2dd" stroke="transparent" points="111.78,-475.53 111.78,-535.53 580.78,-535.53 580.78,-475.53 111.78,-475.53"/>
<polygon fill="none" stroke="#29235c" points="111.78,-475.53 111.78,-535.53 580.78,-535.53 580.78,-475.53 111.78,-475.53"/>
<text text-anchor="start" x="122.78" y="-495.73" font-family="Helvetica,sans-Serif" font-size="32.00" fill="#29235c">user_id &#160;&#160;&#160;</text>
<text text-anchor="start" x="427.56" y="-496.73" font-family="Helvetica,sans-Serif" font-style="italic" font-size="32.00" fill="#29235c">INTEGER</text>
<polygon fill="#e7e2dd" stroke="transparent" points="111.78,-415.53 111.78,-475.53 580.78,-475.53 580.78,-415.53 111.78,-415.53"/>
<polygon fill="none" stroke="#29235c" points="111.78,-415.53 111.78,-475.53 580.78,-475.53 580.78,-415.53 111.78,-415.53"/>
<text text-anchor="start" x="122.33" y="-435.73" font-family="Helvetica,sans-Serif" font-size="32.00" fill="#29235c">source_of_plant_id &#160;&#160;&#160;</text>
<text text-anchor="start" x="427.67" y="-436.73" font-family="Helvetica,sans-Serif" font-style="italic" font-size="32.00" fill="#29235c">INTEGER</text>
<polygon fill="none" stroke="#29235c" stroke-width="2" points="110.28,-414.53 110.28,-656.53 581.28,-656.53 581.28,-414.53 110.28,-414.53"/>
</g>
<!-- UserSourceOfPlant&#45;&gt;User -->
<!-- UserSourceOfPlant&#45;&gt;User -->
<g id="edge18" class="edge">
<title>UserSourceOfPlant:e&#45;&gt;User:w</title>
<path fill="none" stroke="#29235c" stroke-width="3" d="M581.78,-505.53C687.49,-505.53 661.22,-615.27 691.55,-716.53 736.54,-866.76 688.05,-915.77 727.55,-1067.53 758.46,-1186.32 716.26,-1320.69 829.73,-1328.2"/>
<polygon fill="#29235c" stroke="#29235c" stroke-width="3" points="829.95,-1331.71 840.06,-1328.53 830.18,-1324.72 829.95,-1331.71"/>
<text text-anchor="middle" x="833.84" y="-1338.13" font-family="Helvetica,sans-Serif" font-size="32.00" fill="#29235c">*</text>
<text text-anchor="middle" x="590.67" y="-515.13" font-family="Helvetica,sans-Serif" font-size="32.00" fill="#29235c">1</text>
</g>
<!-- UserSourceOfPlant&#45;&gt;SourceOfPlant -->
<!-- UserSourceOfPlant&#45;&gt;SourceOfPlant -->
<g id="edge16" class="edge">
<title>UserSourceOfPlant:e&#45;&gt;SourceOfPlant:w</title>
<path fill="none" stroke="#29235c" stroke-width="3" d="M581.78,-445.53C692.55,-445.53 694.79,-558.38 799,-565.21"/>
<polygon fill="#29235c" stroke="#29235c" stroke-width="3" points="798.95,-568.71 809.06,-565.53 799.18,-561.71 798.95,-568.71"/>
<text text-anchor="middle" x="802.84" y="-575.13" font-family="Helvetica,sans-Serif" font-size="32.00" fill="#29235c">*</text>
<text text-anchor="middle" x="590.67" y="-455.13" font-family="Helvetica,sans-Serif" font-size="32.00" fill="#29235c">1</text>
</g>
<!-- UserThcPercentage -->
<g id="UserThcPercentage" class="node">
<title>UserThcPercentage</title>
<ellipse fill="none" stroke="black" stroke-width="0" cx="345.78" cy="-172.53" rx="329.52" ry="172.57"/>
<polygon fill="#1d71b8" stroke="transparent" points="114.78,-232.53 114.78,-292.53 576.78,-292.53 576.78,-232.53 114.78,-232.53"/>
<polygon fill="none" stroke="#29235c" points="114.78,-232.53 114.78,-292.53 576.78,-292.53 576.78,-232.53 114.78,-232.53"/>
<text text-anchor="start" x="141.28" y="-253.73" font-family="Helvetica,sans-Serif" font-weight="bold" font-size="32.00" fill="#ffffff"> &#160;&#160;&#160;&#160;&#160;&#160;UserThcPercentage &#160;&#160;&#160;&#160;&#160;&#160;</text>
<polygon fill="#e7e2dd" stroke="transparent" points="114.78,-172.53 114.78,-232.53 576.78,-232.53 576.78,-172.53 114.78,-172.53"/>
<polygon fill="none" stroke="#29235c" points="114.78,-172.53 114.78,-232.53 576.78,-232.53 576.78,-172.53 114.78,-172.53"/>
<text text-anchor="start" x="125.78" y="-193.73" font-family="Helvetica,sans-Serif" font-weight="bold" font-size="32.00" fill="#29235c">id</text>
<text text-anchor="start" x="150.66" y="-193.73" font-family="Helvetica,sans-Serif" font-size="32.00" fill="#29235c"> &#160;&#160;&#160;</text>
<text text-anchor="start" x="423.56" y="-193.73" font-family="Helvetica,sans-Serif" font-style="italic" font-size="32.00" fill="#29235c">INTEGER</text>
<polygon fill="#e7e2dd" stroke="transparent" points="114.78,-112.53 114.78,-172.53 576.78,-172.53 576.78,-112.53 114.78,-112.53"/>
<polygon fill="none" stroke="#29235c" points="114.78,-112.53 114.78,-172.53 576.78,-172.53 576.78,-112.53 114.78,-112.53"/>
<text text-anchor="start" x="125.78" y="-132.73" font-family="Helvetica,sans-Serif" font-size="32.00" fill="#29235c">user_id &#160;&#160;&#160;</text>
<text text-anchor="start" x="423.56" y="-133.73" font-family="Helvetica,sans-Serif" font-style="italic" font-size="32.00" fill="#29235c">INTEGER</text>
<polygon fill="#e7e2dd" stroke="transparent" points="114.78,-52.53 114.78,-112.53 576.78,-112.53 576.78,-52.53 114.78,-52.53"/>
<polygon fill="none" stroke="#29235c" points="114.78,-52.53 114.78,-112.53 576.78,-112.53 576.78,-52.53 114.78,-52.53"/>
<text text-anchor="start" x="125.38" y="-72.73" font-family="Helvetica,sans-Serif" font-size="32.00" fill="#29235c">thc_percentage_id &#160;&#160;&#160;</text>
<text text-anchor="start" x="423.67" y="-73.73" font-family="Helvetica,sans-Serif" font-style="italic" font-size="32.00" fill="#29235c">INTEGER</text>
<polygon fill="none" stroke="#29235c" stroke-width="2" points="113.78,-51.53 113.78,-293.53 577.78,-293.53 577.78,-51.53 113.78,-51.53"/>
</g>
<!-- UserThcPercentage&#45;&gt;User -->
<!-- UserThcPercentage&#45;&gt;User -->
<g id="edge22" class="edge">
<title>UserThcPercentage:e&#45;&gt;User:w</title>
<path fill="none" stroke="#29235c" stroke-width="3" d="M577.78,-142.53C844.27,-142.53 577.09,-1298.61 830.04,-1327.97"/>
<polygon fill="#29235c" stroke="#29235c" stroke-width="3" points="829.88,-1331.46 840.06,-1328.53 830.27,-1324.47 829.88,-1331.46"/>
<text text-anchor="middle" x="846.28" y="-1338.13" font-family="Helvetica,sans-Serif" font-size="32.00" fill="#29235c">*</text>
<text text-anchor="middle" x="586.67" y="-152.13" font-family="Helvetica,sans-Serif" font-size="32.00" fill="#29235c">1</text>
</g>
<!-- UserThcPercentage&#45;&gt;ThcPercentage -->
<!-- UserThcPercentage&#45;&gt;ThcPercentage -->
<g id="edge20" class="edge">
<title>UserThcPercentage:e&#45;&gt;ThcPercentage:w</title>
<path fill="none" stroke="#29235c" stroke-width="3" d="M577.78,-82.53C688.55,-82.53 690.79,-195.38 795,-202.21"/>
<polygon fill="#29235c" stroke="#29235c" stroke-width="3" points="794.95,-205.71 805.06,-202.53 795.18,-198.71 794.95,-205.71"/>
<text text-anchor="middle" x="798.84" y="-212.13" font-family="Helvetica,sans-Serif" font-size="32.00" fill="#29235c">*</text>
<text text-anchor="middle" x="586.67" y="-53.73" font-family="Helvetica,sans-Serif" font-size="32.00" fill="#29235c">1</text>
</g>
</g>
</svg>
